<?xml version="1.0" encoding="UTF-8" standalone="no"?>
<!-- Created with Inkscape (http://www.inkscape.org/) -->

<svg
   xmlns:dc="http://purl.org/dc/elements/1.1/"
   xmlns:cc="http://creativecommons.org/ns#"
   xmlns:rdf="http://www.w3.org/1999/02/22-rdf-syntax-ns#"
   xmlns:svg="http://www.w3.org/2000/svg"
   xmlns="http://www.w3.org/2000/svg"
   xmlns:sodipodi="http://sodipodi.sourceforge.net/DTD/sodipodi-0.dtd"
   xmlns:inkscape="http://www.inkscape.org/namespaces/inkscape"
   width="1052.3622"
   height="744.09448"
   id="svg5152"
   sodipodi:version="0.32"
   inkscape:version="0.47 r22583"
   version="1.0"
   sodipodi:docname="Kepanjangan.svg"
   inkscape:output_extension="org.inkscape.output.svg.inkscape"
   inkscape:export-filename="/Users/eprabowo/Desktop/presentation/Kepanjangan.png"
   inkscape:export-xdpi="90"
   inkscape:export-ydpi="90">
  <defs
     id="defs5154">
    <inkscape:perspective
       sodipodi:type="inkscape:persp3d"
       inkscape:vp_x="0 : 526.18109 : 1"
       inkscape:vp_y="0 : 1000 : 0"
       inkscape:vp_z="744.09448 : 526.18109 : 1"
       inkscape:persp3d-origin="372.04724 : 350.78739 : 1"
       id="perspective5160" />
    <inkscape:perspective
       id="perspective5206"
       inkscape:persp3d-origin="372.04724 : 350.78739 : 1"
       inkscape:vp_z="744.09448 : 526.18109 : 1"
       inkscape:vp_y="0 : 1000 : 0"
       inkscape:vp_x="0 : 526.18109 : 1"
       sodipodi:type="inkscape:persp3d" />
    <inkscape:perspective
       id="perspective4088"
       inkscape:persp3d-origin="0.5 : 0.33333333 : 1"
       inkscape:vp_z="1 : 0.5 : 1"
       inkscape:vp_y="0 : 1000 : 0"
       inkscape:vp_x="0 : 0.5 : 1"
       sodipodi:type="inkscape:persp3d" />
  </defs>
  <sodipodi:namedview
     id="base"
     pagecolor="#ffffff"
     bordercolor="#666666"
     borderopacity="1.0"
     gridtolerance="10000"
     guidetolerance="10"
     objecttolerance="10"
     inkscape:pageopacity="0.0"
     inkscape:pageshadow="2"
     inkscape:zoom="0.61820106"
     inkscape:cx="526.18109"
     inkscape:cy="372.04724"
     inkscape:document-units="px"
     inkscape:current-layer="layer7"
     showgrid="false"
     inkscape:window-width="977"
     inkscape:window-height="708"
     inkscape:window-x="314"
     inkscape:window-y="23"
     inkscape:window-maximized="1" />
  <metadata
     id="metadata5157">
    <rdf:RDF>
      <cc:Work
         rdf:about="">
        <dc:format>image/svg+xml</dc:format>
        <dc:type
           rdf:resource="http://purl.org/dc/dcmitype/StillImage" />
        <dc:title></dc:title>
      </cc:Work>
    </rdf:RDF>
  </metadata>
  <g
     inkscape:label="BG"
     inkscape:groupmode="layer"
     id="layer1"
     sodipodi:insensitive="true"
     style="display:inline">
    <rect
       style="fill:#ffffff;fill-opacity:1;fill-rule:nonzero;stroke:none;stroke-width:1px;marker:none;visibility:visible;display:inline;overflow:visible;enable-background:accumulate"
       id="rect3773"
       width="1052.3622"
       height="744.09448"
       x="0"
       y="-5.7671014e-06" />
  </g>
  <g
     inkscape:groupmode="layer"
     id="layer7"
     inkscape:label="FG"
     sodipodi:insensitive="true">
    <text
       xml:space="preserve"
       style="font-size:40px;font-style:normal;font-variant:normal;font-weight:normal;font-stretch:normal;fill:#000000;fill-opacity:1;stroke:none;font-family:Monospace;-inkscape-font-specification:Monospace"
       x="74.489502"
       y="284.48953"
       id="text5213"><tspan
         sodipodi:role="line"
         x="74.489502"
         y="284.48953"
         style="font-size:28px;font-style:normal;font-variant:normal;font-weight:normal;font-stretch:normal;fill:#000000;fill-opacity:1;font-family:Sans;-inkscape-font-specification:Sans"
         id="tspan5748">P<tspan
   style="font-size:22px"
   id="tspan2638">USPA</tspan>'s an <tspan
   style="fill:#003cb0;fill-opacity:1"
   id="tspan3985">Understanding Synthespian</tspan> that Provides <tspan
   style="fill:#003cb0;fill-opacity:1"
   id="tspan4055">Assistance</tspan></tspan></text>
    <text
       id="text4288"
       y="169.54848"
       x="110.41314"
       style="font-size:40px;font-style:normal;font-variant:normal;font-weight:normal;font-stretch:normal;fill:#000000;fill-opacity:1;stroke:none;font-family:Monospace;-inkscape-font-specification:Monospace"
       xml:space="preserve"><tspan
         id="tspan4290"
         style="font-size:144px;font-style:normal;font-variant:normal;font-weight:normal;font-stretch:normal;fill:#000000;fill-opacity:1;font-family:Serif;-inkscape-font-specification:Serif"
         y="169.54848"
         x="110.41314"
         sodipodi:role="line">P</tspan></text>
    <text
       xml:space="preserve"
       style="font-size:40px;font-style:normal;font-variant:normal;font-weight:normal;font-stretch:normal;fill:#000000;fill-opacity:1;stroke:none;font-family:Monospace;-inkscape-font-specification:Monospace"
       x="270.89932"
       y="168.52895"
       id="text4292"><tspan
         sodipodi:role="line"
         x="270.89932"
         y="168.52895"
         style="font-size:144px;font-style:normal;font-variant:normal;font-weight:normal;font-stretch:normal;fill:#000000;fill-opacity:1;font-family:Serif;-inkscape-font-specification:Serif"
         id="tspan4294">U</tspan></text>
    <text
       id="text4296"
       y="169.47816"
       x="490.17728"
       style="font-size:40px;font-style:normal;font-variant:normal;font-weight:normal;font-stretch:normal;fill:#000000;fill-opacity:1;stroke:none;font-family:Monospace;-inkscape-font-specification:Monospace"
       xml:space="preserve"><tspan
         id="tspan4298"
         style="font-size:144px;font-style:normal;font-variant:normal;font-weight:normal;font-stretch:normal;fill:#000000;fill-opacity:1;font-family:Serif;-inkscape-font-specification:Serif"
         y="169.47816"
         x="490.17728"
         sodipodi:role="line">S</tspan></text>
    <text
       xml:space="preserve"
       style="font-size:40px;font-style:normal;font-variant:normal;font-weight:normal;font-stretch:normal;fill:#000000;fill-opacity:1;stroke:none;font-family:Monospace;-inkscape-font-specification:Monospace"
       x="700.58716"
       y="169.54848"
       id="text4300"><tspan
         sodipodi:role="line"
         x="700.58716"
         y="169.54848"
         style="font-size:144px;font-style:normal;font-variant:normal;font-weight:normal;font-stretch:normal;fill:#000000;fill-opacity:1;font-family:Serif;-inkscape-font-specification:Serif"
         id="tspan4302">P</tspan></text>
    <text
       id="text4304"
       y="169.54848"
       x="835.80365"
       style="font-size:40px;font-style:normal;font-variant:normal;font-weight:normal;font-stretch:normal;fill:#000000;fill-opacity:1;stroke:none;font-family:Monospace;-inkscape-font-specification:Monospace"
       xml:space="preserve"><tspan
         id="tspan4306"
         style="font-size:144px;font-style:normal;font-variant:normal;font-weight:normal;font-stretch:normal;fill:#000000;fill-opacity:1;font-family:Serif;-inkscape-font-specification:Serif"
         y="169.54848"
         x="835.80365"
         sodipodi:role="line">A</tspan></text>
    <text
       id="text4308"
       y="391.19794"
       x="48.298561"
       style="font-size:40px;font-style:normal;font-variant:normal;font-weight:normal;font-stretch:normal;fill:#000000;fill-opacity:1;stroke:none;font-family:Monospace;-inkscape-font-specification:Monospace"
       xml:space="preserve"><tspan
         id="tspan4310"
         style="font-size:40px;font-style:normal;font-variant:normal;font-weight:normal;font-stretch:normal;fill:#000000;fill-opacity:1;font-family:Sans;-inkscape-font-specification:Sans"
         y="391.19794"
         x="48.298561"
         sodipodi:role="line">ELIZA</tspan></text>
    <text
       xml:space="preserve"
       style="font-size:40px;font-style:normal;font-variant:normal;font-weight:normal;font-stretch:normal;fill:#000000;fill-opacity:1;stroke:none;font-family:Monospace;-inkscape-font-specification:Monospace"
       x="142.93776"
       y="427.51505"
       id="text4312"
       transform="matrix(0.96592583,0.25881905,-0.25881905,0.96592583,0,0)"><tspan
         sodipodi:role="line"
         x="142.93776"
         y="427.51505"
         style="font-size:40px;font-style:normal;font-variant:normal;font-weight:normal;font-stretch:normal;text-align:start;text-anchor:start;fill:#000000;fill-opacity:1;font-family:Sans;-inkscape-font-specification:Sans"
         id="tspan4314">ALICE</tspan><tspan
         sodipodi:role="line"
         x="142.93776"
         y="465.55405"
         style="font-size:28px;font-style:normal;font-variant:normal;font-weight:normal;font-stretch:normal;text-align:start;text-anchor:start;fill:#000000;fill-opacity:1;font-family:Sans;-inkscape-font-specification:Sans"
         id="tspan4316">Artificial Linguistic Internet Computer Entity</tspan></text>
    <text
       xml:space="preserve"
       style="font-size:40px;font-style:normal;font-variant:normal;font-weight:normal;font-stretch:normal;fill:#000000;fill-opacity:1;stroke:none;font-family:Monospace;-inkscape-font-specification:Monospace"
       x="90.089523"
       y="602.22028"
       id="text4318"><tspan
         sodipodi:role="line"
         x="90.089523"
         y="602.22028"
         style="font-size:40px;font-style:normal;font-variant:normal;font-weight:normal;font-stretch:normal;fill:#000000;fill-opacity:1;font-family:Sans;-inkscape-font-specification:Sans"
         id="tspan4320">Spleak</tspan></text>
    <text
       xml:space="preserve"
       style="font-size:40px;font-style:normal;font-variant:normal;font-weight:normal;font-stretch:normal;fill:#000000;fill-opacity:1;stroke:none;font-family:Monospace;-inkscape-font-specification:Monospace"
       x="525.44305"
       y="581.48511"
       id="text4322"><tspan
         sodipodi:role="line"
         x="525.44305"
         y="581.48511"
         style="font-size:40px;font-style:normal;font-variant:normal;font-weight:normal;font-stretch:normal;fill:#000000;fill-opacity:1;font-family:Sans;-inkscape-font-specification:Sans"
         id="tspan4324">Buzz Lightyear</tspan></text>
    <text
       id="text4330"
       y="645.14801"
       x="846.42542"
       style="font-size:40px;font-style:normal;font-variant:normal;font-weight:normal;font-stretch:normal;fill:#000000;fill-opacity:1;stroke:none;font-family:Monospace;-inkscape-font-specification:Monospace"
       xml:space="preserve"><tspan
         id="tspan4332"
         style="font-size:40px;font-style:normal;font-variant:normal;font-weight:normal;font-stretch:normal;text-align:center;text-anchor:middle;fill:#000000;fill-opacity:1;font-family:Sans;-inkscape-font-specification:Sans"
         y="645.14801"
         x="846.42542"
         sodipodi:role="line">REA</tspan><tspan
         style="font-size:28px;font-style:normal;font-variant:normal;font-weight:normal;font-stretch:normal;text-align:center;text-anchor:middle;fill:#000000;fill-opacity:1;font-family:Sans;-inkscape-font-specification:Sans"
         y="683.18701"
         x="846.42542"
         sodipodi:role="line"
         id="tspan4334">Real Estate Agent</tspan><tspan
         style="font-size:28px;font-style:normal;font-variant:normal;font-weight:normal;font-stretch:normal;text-align:center;text-anchor:middle;fill:#000000;fill-opacity:1;font-family:Sans;-inkscape-font-specification:Sans"
         y="718.18701"
         x="846.42542"
         sodipodi:role="line"
         id="tspan4336">MIT</tspan></text>
    <g
       id="g4103">
      <path
         id="path4060"
         d="m 426.25896,297.73847 c -29.87447,1.07907 -59.74178,2.34708 -89.60608,3.7186 -4.26282,21.0957 5.31971,44.71877 -7.20639,63.88785 -5.10872,6.35267 -12.67283,10.35778 -20.02249,13.60521 -8.83237,-11.72016 -17.64805,-23.45296 -26.49224,-35.1642 -23.12455,28.38819 -46.23799,56.78549 -69.35586,85.17918 58.44025,19.22499 116.89406,38.40919 175.3869,57.47373 -12.92754,-18.65927 -26.23823,-36.94013 -39.10981,-55.58332 26.94797,-8.46587 45.20915,-33.7373 53.01728,-60.2104 8.60834,-24.45156 13.66749,-50.48582 26.88679,-73.02997 -1.16604,0.0411 -2.33208,0.0822 -3.4981,0.12332 z"
         style="color:#000000;fill:#ca1925;fill-opacity:1;stroke:#000000;stroke-width:7;stroke-miterlimit:4;stroke-opacity:1;stroke-dasharray:none;marker:none;visibility:visible;display:inline;overflow:visible;enable-background:accumulate" />
      <path
         sodipodi:nodetypes="cccccccc"
         id="rect3205"
         d="m 347.7076,312.97322 62.54874,-2.6086 c -18.09789,39.95683 -18.87019,108.49136 -81.23575,111.81669 l 29.34918,41.67434 -124.47553,-40.78991 48.70361,-59.83699 22.78923,30.34236 c 49.15727,-18.31122 42.24311,-39.33038 42.32052,-80.59789 z"
         style="color:#000000;fill:#bcc64e;fill-opacity:1;stroke:none;stroke-width:5;marker:none;visibility:visible;display:inline;overflow:visible;enable-background:accumulate" />
      <path
         sodipodi:nodetypes="cccc"
         id="path4078"
         d="m 381.91675,316.98507 19.17058,-0.72649 c -15.05758,62.58877 -29.35582,89.11494 -62.34378,95.06777 38.00427,-27.8963 40.09269,-61.19337 43.1732,-94.34128 z"
         style="color:#000000;fill:#e2e6b1;fill-opacity:1;fill-rule:nonzero;stroke:none;stroke-width:5;marker:none;visibility:visible;display:inline;overflow:visible;enable-background:accumulate" />
      <path
         style="color:#000000;fill:#e2e6b1;fill-opacity:1;fill-rule:nonzero;stroke:none;stroke-width:5;marker:none;visibility:visible;display:inline;overflow:visible;enable-background:accumulate"
         d="m 290.55877,384.66833 -7.21222,-12.03225 c -15.41288,19.75123 -18.62843,25.18318 -29.56463,42.80479 13.79937,-16.53562 23.56297,-23.56965 36.77685,-30.77254 z"
         id="path4101"
         sodipodi:nodetypes="cccc" />
    </g>
    <g
       id="g4151">
      <path
         sodipodi:nodetypes="cccccccc"
         style="color:#000000;fill:#ca1925;fill-opacity:1;stroke:#000000;stroke-width:7;stroke-miterlimit:4;stroke-opacity:1;stroke-dasharray:none;marker:none;visibility:visible;display:inline;overflow:visible;enable-background:accumulate"
         d="m 598.19192,304.09705 c -7.91876,41.32725 -28.74461,94.7823 -13.36714,136.87876 14.53284,-2.04197 29.0628,-4.10469 43.59769,-6.132 -3.72196,36.42501 -7.45821,72.84861 -11.18878,109.27278 -54.91762,-27.72938 -109.81598,-55.49719 -164.65733,-83.37721 22.33525,-4.05294 44.67385,-7.56738 66.95816,-11.64853 -23.66063,-56.01041 -35.5998,-98.64019 -18.95499,-149.48393 28.57515,-0.68964 59.41557,-4.89125 97.61239,4.49013 z"
         id="path4111" />
      <path
         style="color:#000000;fill:#bcc64e;fill-opacity:1;stroke:none;stroke-width:5;marker:none;visibility:visible;display:inline;overflow:visible;enable-background:accumulate"
         d="m 587.15969,314.27889 -73.1827,-5.41904 c -15.4566,41.05089 -15.3259,102.37767 26.42185,148.82814 l -50.22121,8.71521 116.86031,59.17467 7.87249,-76.7498 -37.56971,5.34087 c -11.95589,-60.02687 -4.5235,-100.79923 9.81897,-139.89005 z"
         id="path4113"
         sodipodi:nodetypes="cccccccc" />
      <path
         style="color:#000000;fill:#e2e6b1;fill-opacity:1;fill-rule:nonzero;stroke:none;stroke-width:5;marker:none;visibility:visible;display:inline;overflow:visible;enable-background:accumulate"
         d="m 541.55187,321.57518 -16.91295,-9.0549 c -13.89644,62.85678 -12.67021,92.96615 14.37189,112.77445 -21.93373,-41.73055 -9.2178,-72.57468 2.5411,-103.71955 z"
         id="path4115"
         sodipodi:nodetypes="cccc" />
      <path
         sodipodi:nodetypes="cccc"
         id="path4117"
         d="m 594.12114,458.35893 13.60789,-3.40828 c -3.06768,24.86478 -4.63491,30.97949 -9.36221,51.17291 1.93482,-21.45008 0.005,-33.3278 -4.24568,-47.76463 z"
         style="color:#000000;fill:#e2e6b1;fill-opacity:1;fill-rule:nonzero;stroke:none;stroke-width:5;marker:none;visibility:visible;display:inline;overflow:visible;enable-background:accumulate" />
    </g>
    <g
       id="g4141"
       transform="matrix(0.99265701,-0.12096302,0.12096302,0.99265701,-32.200849,115.02218)">
      <path
         sodipodi:nodetypes="cccccccccc"
         id="path4121"
         d="m 970.84112,292.32762 c -25.33252,15.87173 -73.97131,-3.82287 -99.14879,12.29705 23.95077,20.40082 36.55244,142.01497 19.54329,164.87893 -1.24795,8.05593 -5.79611,15.30651 -10.53738,21.7937 -13.50914,-5.73377 -27.01014,-11.48684 -40.52506,-17.20697 -5.83235,36.14717 -3.02692,85.84806 -8.85073,121.99665 60.22323,-12.57079 111.81421,-38.73508 172.00275,-51.47113 -20.52517,-9.69563 -41.19303,-18.87197 -61.66174,-28.58166 57.71269,-72.43979 36.51877,-145.50954 32.14544,-225.56242 -0.98927,0.61861 -1.97854,1.23723 -2.96778,1.85585 z"
         style="color:#000000;fill:#ca1925;fill-opacity:1;stroke:#000000;stroke-width:7;stroke-miterlimit:4;stroke-opacity:1;stroke-dasharray:none;marker:none;visibility:visible;display:inline;overflow:visible;enable-background:accumulate" />
      <path
         sodipodi:nodetypes="cccccccc"
         id="path4123"
         d="m 895.64769,312.76642 67.64783,-1.50293 c 4.30518,43.65258 10.8008,174.84415 -41.54666,208.90675 l 46.25431,21.41645 -120.80226,36.76823 4.8684,-86.02772 34.90723,14.88264 c 33.41583,-40.43662 29.23787,-158.66601 8.67115,-194.44342 z"
         style="color:#000000;fill:#bcc64e;fill-opacity:1;stroke:none;stroke-width:5;marker:none;visibility:visible;display:inline;overflow:visible;enable-background:accumulate" />
      <path
         sodipodi:nodetypes="cccc"
         id="path4125"
         d="m 938.94898,318.51326 19.55013,-0.0999 c 0.34895,61.88378 7.15957,85.8038 -12.87184,111.24087 9.19173,-41.29502 4.47116,-79.77284 -6.67829,-111.14102 z"
         style="color:#000000;fill:#e2e6b1;fill-opacity:1;fill-rule:nonzero;stroke:none;stroke-width:5;marker:none;visibility:visible;display:inline;overflow:visible;enable-background:accumulate" />
      <path
         style="color:#000000;fill:#e2e6b1;fill-opacity:1;fill-rule:nonzero;stroke:none;stroke-width:5;marker:none;visibility:visible;display:inline;overflow:visible;enable-background:accumulate"
         d="m 870.91541,513.07368 -12.26209,-6.81412 c -3.47233,24.8115 -3.54111,31.12349 -4.20133,51.85235 3.6828,-21.21995 8.62131,-32.1934 16.46342,-45.03823 z"
         id="path4127"
         sodipodi:nodetypes="cccc" />
    </g>
    <g
       id="g4171">
      <path
         id="path4159"
         d="m 345.09301,185.11226 c -2.03158,10.60262 -7.37451,24.31666 -3.42938,35.11662 3.72844,-0.52388 7.45614,-1.05307 11.18511,-1.57319 -0.95488,9.34494 -1.91342,18.68951 -2.87051,28.03423 -14.08927,-7.11405 -28.17359,-14.23795 -42.24328,-21.39065 5.73017,-1.03979 11.46119,-1.94143 17.17829,-2.98846 -6.07019,-14.36962 -9.13322,-25.3064 -4.86295,-38.3505 7.33103,-0.17693 15.24322,-1.25487 25.04272,1.15195 z"
         style="color:#000000;fill:#ca1925;fill-opacity:1;stroke:#000000;stroke-width:3;stroke-miterlimit:4;stroke-opacity:1;stroke-dasharray:none;marker:none;visibility:visible;display:inline;overflow:visible;enable-background:accumulate"
         sodipodi:nodetypes="cccccccc" />
      <path
         sodipodi:nodetypes="cccccccc"
         id="path4161"
         d="m 342.26266,187.72444 -18.77522,-1.39027 c -3.96543,10.53172 -3.9319,26.26527 6.7786,38.18226 l -12.88439,2.23591 29.98083,15.18142 2.01971,-19.69037 -9.63861,1.37022 c -3.06732,-15.40006 -1.16052,-25.86031 2.51908,-35.88917 z"
         style="color:#000000;fill:#bcc64e;fill-opacity:1;stroke:none;stroke-width:5;marker:none;visibility:visible;display:inline;overflow:visible;enable-background:accumulate" />
      <path
         sodipodi:nodetypes="cccc"
         id="path4163"
         d="m 330.56185,189.59632 -4.33906,-2.32305 c -3.56517,16.12607 -3.25058,23.85071 3.68715,28.93258 -5.62716,-10.70608 -2.36485,-18.61923 0.65192,-26.60953 z"
         style="color:#000000;fill:#e2e6b1;fill-opacity:1;fill-rule:nonzero;stroke:none;stroke-width:5;marker:none;visibility:visible;display:inline;overflow:visible;enable-background:accumulate" />
      <path
         style="color:#000000;fill:#e2e6b1;fill-opacity:1;fill-rule:nonzero;stroke:none;stroke-width:5;marker:none;visibility:visible;display:inline;overflow:visible;enable-background:accumulate"
         d="m 344.04864,224.68856 3.49114,-0.8744 c -0.78702,6.37912 -1.1891,7.94787 -2.4019,13.12855 0.49638,-5.50308 10e-4,-8.55034 -1.08924,-12.25415 z"
         id="path4165"
         sodipodi:nodetypes="cccc" />
    </g>
    <g
       id="g4177"
       transform="matrix(-1,0,0,1,876.17398,2.463889)">
      <path
         sodipodi:nodetypes="cccccccc"
         style="color:#000000;fill:#ca1925;fill-opacity:1;stroke:#000000;stroke-width:3;stroke-miterlimit:4;stroke-opacity:1;stroke-dasharray:none;marker:none;visibility:visible;display:inline;overflow:visible;enable-background:accumulate"
         d="m 345.09301,185.11226 c -2.03158,10.60262 -7.37451,24.31666 -3.42938,35.11662 3.72844,-0.52388 7.45614,-1.05307 11.18511,-1.57319 -0.95488,9.34494 -1.91342,18.68951 -2.87051,28.03423 -14.08927,-7.11405 -28.17359,-14.23795 -42.24328,-21.39065 5.73017,-1.03979 11.46119,-1.94143 17.17829,-2.98846 -6.07019,-14.36962 -9.13322,-25.3064 -4.86295,-38.3505 7.33103,-0.17693 15.24322,-1.25487 25.04272,1.15195 z"
         id="path4179" />
      <path
         style="color:#000000;fill:#bcc64e;fill-opacity:1;stroke:none;stroke-width:5;marker:none;visibility:visible;display:inline;overflow:visible;enable-background:accumulate"
         d="m 342.26266,187.72444 -18.77522,-1.39027 c -3.96543,10.53172 -3.9319,26.26527 6.7786,38.18226 l -12.88439,2.23591 29.98083,15.18142 2.01971,-19.69037 -9.63861,1.37022 c -3.06732,-15.40006 -1.16052,-25.86031 2.51908,-35.88917 z"
         id="path4181"
         sodipodi:nodetypes="cccccccc" />
      <path
         style="color:#000000;fill:#e2e6b1;fill-opacity:1;fill-rule:nonzero;stroke:none;stroke-width:5;marker:none;visibility:visible;display:inline;overflow:visible;enable-background:accumulate"
         d="m 330.56185,189.59632 -4.33906,-2.32305 c -3.56517,16.12607 -3.25058,23.85071 3.68715,28.93258 -5.62716,-10.70608 -2.36485,-18.61923 0.65192,-26.60953 z"
         id="path4183"
         sodipodi:nodetypes="cccc" />
      <path
         sodipodi:nodetypes="cccc"
         id="path4185"
         d="m 344.04864,224.68856 3.49114,-0.8744 c -0.78702,6.37912 -1.1891,7.94787 -2.4019,13.12855 0.49638,-5.50308 10e-4,-8.55034 -1.08924,-12.25415 z"
         style="color:#000000;fill:#e2e6b1;fill-opacity:1;fill-rule:nonzero;stroke:none;stroke-width:5;marker:none;visibility:visible;display:inline;overflow:visible;enable-background:accumulate" />
    </g>
    <g
       transform="matrix(-1,0,0,1,1221.1184,3.6958335)"
       id="g4187">
      <path
         id="path4189"
         d="m 345.09301,185.11226 c -2.03158,10.60262 -7.37451,24.31666 -3.42938,35.11662 3.72844,-0.52388 7.45614,-1.05307 11.18511,-1.57319 -0.95488,9.34494 -1.91342,18.68951 -2.87051,28.03423 -14.08927,-7.11405 -28.17359,-14.23795 -42.24328,-21.39065 5.73017,-1.03979 11.46119,-1.94143 17.17829,-2.98846 -6.07019,-14.36962 -9.13322,-25.3064 -4.86295,-38.3505 7.33103,-0.17693 15.24322,-1.25487 25.04272,1.15195 z"
         style="color:#000000;fill:#ca1925;fill-opacity:1;stroke:#000000;stroke-width:3;stroke-miterlimit:4;stroke-opacity:1;stroke-dasharray:none;marker:none;visibility:visible;display:inline;overflow:visible;enable-background:accumulate"
         sodipodi:nodetypes="cccccccc" />
      <path
         sodipodi:nodetypes="cccccccc"
         id="path4191"
         d="m 342.26266,187.72444 -18.77522,-1.39027 c -3.96543,10.53172 -3.9319,26.26527 6.7786,38.18226 l -12.88439,2.23591 29.98083,15.18142 2.01971,-19.69037 -9.63861,1.37022 c -3.06732,-15.40006 -1.16052,-25.86031 2.51908,-35.88917 z"
         style="color:#000000;fill:#bcc64e;fill-opacity:1;stroke:none;stroke-width:5;marker:none;visibility:visible;display:inline;overflow:visible;enable-background:accumulate" />
      <path
         sodipodi:nodetypes="cccc"
         id="path4193"
         d="m 330.56185,189.59632 -4.33906,-2.32305 c -3.56517,16.12607 -3.25058,23.85071 3.68715,28.93258 -5.62716,-10.70608 -2.36485,-18.61923 0.65192,-26.60953 z"
         style="color:#000000;fill:#e2e6b1;fill-opacity:1;fill-rule:nonzero;stroke:none;stroke-width:5;marker:none;visibility:visible;display:inline;overflow:visible;enable-background:accumulate" />
      <path
         style="color:#000000;fill:#e2e6b1;fill-opacity:1;fill-rule:nonzero;stroke:none;stroke-width:5;marker:none;visibility:visible;display:inline;overflow:visible;enable-background:accumulate"
         d="m 344.04864,224.68856 3.49114,-0.8744 c -0.78702,6.37912 -1.1891,7.94787 -2.4019,13.12855 0.49638,-5.50308 10e-4,-8.55034 -1.08924,-12.25415 z"
         id="path4195"
         sodipodi:nodetypes="cccc" />
    </g>
  </g>
</svg>
