<?xml version="1.0" encoding="UTF-8" standalone="no"?>
<!-- Created with Inkscape (http://www.inkscape.org/) -->

<svg
   xmlns:dc="http://purl.org/dc/elements/1.1/"
   xmlns:cc="http://creativecommons.org/ns#"
   xmlns:rdf="http://www.w3.org/1999/02/22-rdf-syntax-ns#"
   xmlns:svg="http://www.w3.org/2000/svg"
   xmlns="http://www.w3.org/2000/svg"
   xmlns:sodipodi="http://sodipodi.sourceforge.net/DTD/sodipodi-0.dtd"
   xmlns:inkscape="http://www.inkscape.org/namespaces/inkscape"
   width="1052.3622"
   height="744.09448"
   id="svg2"
   sodipodi:version="0.32"
   inkscape:version="0.47 r22583"
   version="1.0"
   sodipodi:docname="Sampul.svg"
   inkscape:output_extension="org.inkscape.output.svg.inkscape"
   inkscape:export-filename="/Volumes/Users/eprabowo/Desktop/PUSPA/presentation/Sampul.png"
   inkscape:export-xdpi="89.988571"
   inkscape:export-ydpi="89.988571">
  <defs
     id="defs4">
    <inkscape:perspective
       sodipodi:type="inkscape:persp3d"
       inkscape:vp_x="0 : 526.18109 : 1"
       inkscape:vp_y="0 : 1000 : 0"
       inkscape:vp_z="744.09448 : 526.18109 : 1"
       inkscape:persp3d-origin="372.04724 : 350.78739 : 1"
       id="perspective10" />
    <inkscape:perspective
       id="perspective3336"
       inkscape:persp3d-origin="372.04724 : 350.78739 : 1"
       inkscape:vp_z="744.09448 : 526.18109 : 1"
       inkscape:vp_y="0 : 1000 : 0"
       inkscape:vp_x="0 : 526.18109 : 1"
       sodipodi:type="inkscape:persp3d" />
    <inkscape:perspective
       id="perspective4356"
       inkscape:persp3d-origin="372.04724 : 350.78739 : 1"
       inkscape:vp_z="744.09448 : 526.18109 : 1"
       inkscape:vp_y="0 : 1000 : 0"
       inkscape:vp_x="0 : 526.18109 : 1"
       sodipodi:type="inkscape:persp3d" />
    <inkscape:perspective
       id="perspective4565"
       inkscape:persp3d-origin="372.04724 : 350.78739 : 1"
       inkscape:vp_z="744.09448 : 526.18109 : 1"
       inkscape:vp_y="0 : 1000 : 0"
       inkscape:vp_x="0 : 526.18109 : 1"
       sodipodi:type="inkscape:persp3d" />
  </defs>
  <sodipodi:namedview
     id="base"
     pagecolor="#ffffff"
     bordercolor="#666666"
     borderopacity="1.0"
     gridtolerance="10000"
     guidetolerance="10"
     objecttolerance="10"
     inkscape:pageopacity="0.0"
     inkscape:pageshadow="2"
     inkscape:zoom="0.66792593"
     inkscape:cx="530.67261"
     inkscape:cy="401.99068"
     inkscape:document-units="px"
     inkscape:current-layer="layer4"
     showgrid="false"
     inkscape:window-width="957"
     inkscape:window-height="745"
     inkscape:window-x="36"
     inkscape:window-y="0"
     inkscape:window-maximized="0" />
  <metadata
     id="metadata7">
    <rdf:RDF>
      <cc:Work
         rdf:about="">
        <dc:format>image/svg+xml</dc:format>
        <dc:type
           rdf:resource="http://purl.org/dc/dcmitype/StillImage" />
        <dc:title></dc:title>
      </cc:Work>
    </rdf:RDF>
  </metadata>
  <g
     inkscape:groupmode="layer"
     id="layer1"
     inkscape:label="BG"
     style="display:inline"
     sodipodi:insensitive="true">
    <rect
       style="fill:#ffffff;fill-opacity:1;fill-rule:nonzero;stroke:none;stroke-width:2.00000024;marker:none;visibility:visible;display:inline;overflow:visible;enable-background:accumulate"
       id="rect3246"
       width="1052.3622"
       height="744.09448"
       x="0"
       y="-5.7671014e-06" />
  </g>
  <g
     inkscape:groupmode="layer"
     id="layer3"
     inkscape:label="PUSPA"
     style="display:none"
     sodipodi:insensitive="true">
    <g
       id="g3428"
       transform="translate(-1.1721535e-5,-24.835814)">
      <path
         inkscape:export-ydpi="14.82"
         inkscape:export-xdpi="14.82"
         inkscape:export-filename="/home/eprabowo/Pictures/PUSPA.png"
         sodipodi:nodetypes="ccccccccccc"
         id="rect3792"
         d="m 552.42109,134.2457 17.94031,0 c 2.11166,31.22519 2.58581,63.57601 17.62557,85.91422 l -8.5176,-0.4468 c -4.68546,-3.34185 -7.26408,-15.11001 -10.37919,-24.73249 2.57013,8.08558 2.47436,15.63803 8.78126,24.47086 l -7.36083,0.60179 c -3.71504,-5.39308 -4.74615,-13.31547 -7.3934,-19.54212 l 4.88779,19.16084 -19.99031,-1.08559 4.4064,-84.34071 0,0 z"
         style="fill:#000000;fill-opacity:1;fill-rule:nonzero;stroke:none;stroke-width:1;marker:none;visibility:visible;display:inline;overflow:visible;enable-background:accumulate" />
      <path
         inkscape:export-ydpi="14.82"
         inkscape:export-xdpi="14.82"
         inkscape:export-filename="/home/eprabowo/Pictures/PUSPA.png"
         sodipodi:nodetypes="cscccccc"
         id="path3634"
         d="m 567.3125,161.45929 c 4.00356,17.08923 -3.62268,42.41202 -14.36445,56.89045 -5.17665,6.9774 -11.80179,11.19467 -16.82268,11.21637 -9.44281,0.73793 -23.79529,-7.13202 -42.0029,-27.46105 -7.0457,-16.60957 -7.6955,-41.32995 -12.86945,-56.62437 5.50199,-43.57792 29.21109,-44.86186 47.6942,-44.61731 36.96737,13.77678 39.31052,31.87669 41.46974,43.97981 0.35769,4.73728 -3.57336,12.15223 -3.10446,16.6161 l 0,0 z"
         style="fill:#be9256;fill-opacity:1;fill-rule:nonzero;stroke:#000000;stroke-width:0.5;stroke-linecap:butt;stroke-linejoin:miter;stroke-miterlimit:4.5;stroke-opacity:1;stroke-dasharray:none;stroke-dashoffset:0;marker:none;visibility:visible;display:inline;overflow:visible;enable-background:accumulate" />
      <path
         inkscape:export-ydpi="14.82"
         inkscape:export-xdpi="14.82"
         inkscape:export-filename="/home/eprabowo/Pictures/PUSPA.png"
         sodipodi:nodetypes="cccccccccsccccccccccccccccccccscscscc"
         id="rect3640"
         d="m 471.02496,114.58348 c -9.48653,30.01624 1.80506,72.82722 -2.853,106.52915 8.82602,5.72812 16.03932,5.86727 22.60196,7.06921 -8.73662,-13.48168 -11.5316,-26.89479 -13.14478,-43.94623 2.70564,19.56442 8.36047,35.78373 14.14057,43.8678 3.5288,2.26929 7.05762,2.04504 10.58643,2.91955 -15.26633,-33.36636 -13.93663,-32.13866 -19.14726,-47.42373 8.30854,31.60584 12.76801,33.41707 19.64572,47.5027 l 19.62897,0.18395 c -5.0934,-6.06902 -11.86856,-11.74846 -16.15972,-17.67778 -19.81263,-27.37634 -17.75968,-63.90321 -18.46597,-70.56253 0.35985,4.34463 1.68907,4.47814 1.67128,9.80188 2.89829,-3.54913 7.65206,-4.77098 11.4663,-6.7268 -1.07409,-4.79119 -1.5921,-8.04736 -6.22759,-15.62896 6.10955,7.60148 6.48277,10.12085 7.80763,15.07011 3.12488,-1.54784 6.72368,-1.71399 8.28987,-3.6523 -1.6256,-5.43905 -6.76941,-11.10687 -10.40283,-17.37941 4.65929,4.2556 8.00279,10.12938 12.23677,17.54768 3.68899,-0.53054 5.60357,-1.95753 8.10012,-2.15269 -1.76508,-6.06846 -5.40379,-12.81489 -9.2783,-17.94868 5.41399,5.65501 8.57319,11.22083 11.56484,17.88312 2.1497,-0.41198 6.50575,0.0883 8.8648,-0.81658 -0.59051,-3.75785 -5.28277,-15.77392 -8.13864,-21.63157 4.08883,7.83056 6.52866,11.41158 9.87273,21.14073 3.05592,-1.0828 9.56856,-0.0648 12.52562,-0.76244 -1.42146,-8.82979 -2.92606,-13.69223 -5.32298,-18.76127 3.02564,5.55602 1.98095,5.37118 6.51445,18.7574 4.28078,-2.18877 5.71309,-1.31084 9.25038,-1.79002 -1.1911,-6.91828 -2.43234,-14.85759 -7.07928,-22.08922 4.86607,8.4594 6.10969,11.34336 8.23181,21.57781 2.60007,-1.39918 6.06751,0.20496 10.01287,-1.06795 0.92789,-0.29936 2.29809,6.51125 2.1911,6.73865 0.19216,-0.62815 -0.0793,-3.53112 0.26891,-4.28924 0.48734,-1.06108 1.03269,-1.96558 1.37059,-1.91884 -2.8738,-30.88791 -17.60002,-47.28549 -46.9505,-50.90162 -7.03134,-0.86631 -12.58777,0.24631 -18.698,2.91286 -19.79829,-26.20817 -56.73634,7.13535 -34.97487,27.62526 l 0,0 z"
         style="fill:#000000;fill-opacity:1;fill-rule:nonzero;stroke:none;stroke-width:1;marker:none;visibility:visible;display:inline;overflow:visible;enable-background:accumulate" />
      <path
         inkscape:export-ydpi="14.82"
         inkscape:export-xdpi="14.82"
         inkscape:export-filename="/home/eprabowo/Pictures/PUSPA.png"
         style="fill:#000000;fill-opacity:1;fill-rule:nonzero;stroke:none;stroke-width:2;marker:none;visibility:visible;display:inline;overflow:visible;enable-background:accumulate"
         d="m 567.40585,147.37599 c -0.28319,-0.11133 -0.43579,-1.80145 -3.26339,-2.69747 -5.30369,-0.82721 -22.35893,6.43093 -26.40744,10.0905 -0.42876,-0.45301 -0.35643,-1.32887 0.43742,-1.8471 3.07948,-1.41309 18.28766,-8.90679 26.00664,-9.28817 3.31604,1.13872 2.57981,2.46242 3.22677,3.74224 l 0,0 z"
         id="path3652"
         sodipodi:nodetypes="cccccc" />
      <path
         inkscape:export-ydpi="14.82"
         inkscape:export-xdpi="14.82"
         inkscape:export-filename="/home/eprabowo/Pictures/PUSPA.png"
         sodipodi:nodetypes="ccccssssscsc"
         id="path3691"
         d="m 549.66836,155.32318 c -1.04799,0.23425 -1.90607,0.59442 -2.85219,0.90812 -0.90108,2.17928 -1.11144,4.85191 -0.38737,7.55378 0.84613,0.86943 0.96515,1.12332 1.72787,1.58195 2.12975,0.20917 3.29643,0.5874 5.40713,-0.0745 1.84669,-0.57906 3.62335,-1.25818 5.12864,-1.94989 1.50528,-0.69172 2.74529,-1.41122 3.53156,-2.13386 0.49339,-0.45345 0.39027,-0.65823 0.37295,-0.8917 -0.0544,-0.28153 -0.0391,-0.54875 -0.11521,-0.8329 -0.56432,-2.10566 -0.20318,-3.59845 -1.5205,-4.97776 -1.27309,0.0143 -3.99386,-0.1783 -5.33654,-0.0593 -2.00088,0.17737 -4.05492,0.45101 -5.95634,0.876 l 0,1e-5 z"
         style="fill:#dfcabd;fill-opacity:1;fill-rule:nonzero;stroke:none;stroke-width:1;marker:none;visibility:visible;display:inline;overflow:visible;enable-background:accumulate" />
      <path
         inkscape:export-ydpi="14.82"
         inkscape:export-xdpi="14.82"
         inkscape:export-filename="/home/eprabowo/Pictures/PUSPA.png"
         sodipodi:nodetypes="cccccccccccc"
         id="path3663"
         d="m 563.47788,160.52904 c -0.24548,-3.58063 -0.33136,-4.27537 -1.90062,-5.3136 -5.85045,1.27011 -12.73105,1.40565 -17.78311,3.71189 -0.51488,0.6694 -1.87479,3.38286 -2.51631,4.60007 1.00909,-3.07013 2.3568,-6.56929 -3.38065,-3.25954 1.37219,-1.11094 4.26211,-3.41215 5.41035,-4.52759 7.21325,-1.57647 15.74924,-2.87125 21.63584,-4.99031 -0.7536,0.65441 -0.42762,0.28912 -1.19832,1.04138 0.67519,-0.3593 1.21607,-0.4584 1.69091,-0.89457 -0.44779,0.63114 -0.10404,0.26827 -0.62057,1.0743 1.79982,-0.57441 3.01886,-1.60205 3.35061,-1.83202 -2.61135,2.1365 -4.07557,7.10749 -4.68813,10.38999 l 0,0 z"
         style="fill:#000000;fill-opacity:1;fill-rule:evenodd;stroke:none" />
      <path
         inkscape:export-ydpi="14.82"
         inkscape:export-xdpi="14.82"
         inkscape:export-filename="/home/eprabowo/Pictures/PUSPA.png"
         style="fill:#000000;fill-opacity:1;fill-rule:evenodd;stroke:none;stroke-width:1px;marker:none;visibility:visible;display:inline;overflow:visible;enable-background:accumulate"
         d="m 562.72087,160.02948 c 0.047,0.30424 0.1466,0.57651 -0.51027,1.18024 -3.14508,2.89056 -13.86805,3.38711 -19.45504,3.82134 -0.57354,0.0446 -0.92275,0.70996 -1.38162,0.69825 0.2105,0.17409 0.88988,-0.2204 1.66216,-0.20411 2.5301,-0.38573 9.71192,0.36859 11.86443,0.64598 4.87725,-1.2876 8.24633,-1.60615 9.69756,-2.85438 -0.96537,0.0544 -1.45214,0.26213 -1.63557,-0.29172 -0.11423,-0.34493 0.57674,-1.00681 1.32105,-1.51044 -0.88791,0.24815 -1.18062,0.47278 -1.17092,0.16968 0.3794,-0.65865 0.8387,-0.75714 1.54013,-1.0608 -0.70619,0.0996 -1.51132,0.25222 -1.54457,0.14442 -0.0359,-0.11624 0.63528,-0.23821 1.25725,-0.42528 -1.11798,-0.008 -1.02238,-0.0546 -1.64459,-0.31318 z"
         id="path3665"
         sodipodi:nodetypes="cscccccscccscc" />
      <path
         inkscape:export-ydpi="14.82"
         inkscape:export-xdpi="14.82"
         inkscape:export-filename="/home/eprabowo/Pictures/PUSPA.png"
         sodipodi:nodetypes="ccccccscssccccccc"
         id="path3696"
         d="m 552.54225,155.70491 c -2.65832,0.48996 -5.14125,1.2605 -6.80606,2.0034 -0.92301,1.56203 -0.518,5.34463 2.0137,7.62919 0.11797,0.0239 0.0921,0.0939 0.31544,0.0464 -2.65412,-2.55745 -2.32693,-6.10751 -1.3554,-6.85813 0.74691,-0.4469 0.71669,-0.55946 2.209,-0.62647 -0.0752,1.12836 -0.12732,1.80008 0.17179,3.19311 0.40003,1.86305 1.55492,3.51658 3.01099,4.51987 0.52317,-0.14877 0.9467,-0.15813 1.46209,-0.31974 1.84669,-0.57906 3.62335,-1.25817 5.12864,-1.94989 0.068,-0.0312 0.083,-0.0808 0.14992,-0.11214 0.65488,-2.26039 0.26553,-5.08859 -1.17307,-7.06375 0.79359,-0.0195 1.3263,-0.48108 1.98867,-0.38821 2.67372,-0.36204 2.91162,3.41979 2.48387,5.68305 0.0622,-0.11286 0.0743,0.098 0.41813,-0.32723 0.13777,-1.80713 0.0868,-5.21261 -1.26847,-6.54266 -2.28856,-0.397 -6.09093,0.6232 -8.74924,1.11316 l 0,3e-5 z"
         style="fill:#000000;fill-opacity:1;fill-rule:nonzero;stroke:none;stroke-width:2.33550406;marker:none;visibility:visible;display:inline;overflow:visible;enable-background:accumulate" />
      <path
         inkscape:export-ydpi="14.82"
         inkscape:export-xdpi="14.82"
         inkscape:export-filename="/home/eprabowo/Pictures/PUSPA.png"
         transform="matrix(1.0746738,-0.2879229,0.2879579,1.0745433,-60.566,132.54803)"
         d="m 524.08818,165.16985 a 1.3773671,1.3773671 0 1 1 -2.75473,0 1.3773671,1.3773671 0 1 1 2.75473,0 z"
         sodipodi:ry="1.3773671"
         sodipodi:rx="1.3773671"
         sodipodi:cy="165.16985"
         sodipodi:cx="522.71082"
         id="path3708"
         style="fill:#ffffff;fill-opacity:1;fill-rule:evenodd;stroke:none;stroke-width:1px;marker:none;visibility:visible;display:inline;overflow:visible;enable-background:accumulate"
         sodipodi:type="arc" />
      <path
         inkscape:export-ydpi="14.82"
         inkscape:export-xdpi="14.82"
         inkscape:export-filename="/home/eprabowo/Pictures/PUSPA.png"
         sodipodi:type="arc"
         style="fill:#ffffff;fill-opacity:1;fill-rule:evenodd;stroke:none;stroke-width:1px;marker:none;visibility:visible;display:inline;overflow:visible;enable-background:accumulate"
         id="path3710"
         sodipodi:cx="522.71082"
         sodipodi:cy="165.16985"
         sodipodi:rx="1.3773671"
         sodipodi:ry="1.3773671"
         d="m 524.08818,165.16985 a 1.3773671,1.3773671 0 1 1 -2.75473,0 1.3773671,1.3773671 0 1 1 2.75473,0 z"
         transform="matrix(0.4701697,-0.1259663,0.169387,0.6320843,277.16629,120.54925)" />
      <path
         inkscape:export-ydpi="14.82"
         inkscape:export-xdpi="14.82"
         inkscape:export-filename="/home/eprabowo/Pictures/PUSPA.png"
         sodipodi:nodetypes="csssc"
         id="path3712"
         d="m 559.89817,160.22068 c 0.21772,0.81247 -0.63661,2.70805 -1.10676,2.46893 -0.74276,-0.37778 -0.68122,-1.01259 -1.13826,-1.71874 -0.50766,-0.78438 -0.90588,-1.087 -0.34204,-1.58507 0.46889,-0.41418 2.36932,0.0224 2.58706,0.83488 z"
         style="fill:#ffffff;fill-opacity:1;fill-rule:evenodd;stroke:none;stroke-width:1px;marker:none;visibility:visible;display:inline;overflow:visible;enable-background:accumulate" />
      <path
         inkscape:export-ydpi="14.82"
         inkscape:export-xdpi="14.82"
         inkscape:export-filename="/home/eprabowo/Pictures/PUSPA.png"
         sodipodi:nodetypes="cccscscscscscscscscscsc"
         id="path3717"
         d="m 500.24322,173.70905 c -0.47747,-1.17189 -0.27429,-1.66609 -0.58571,-2.82122 3.15154,-11.77185 29.93507,-12.97579 29.86066,-3.8336 0.19632,-0.68339 -3.01854,-4.60163 -5.16382,-4.49667 -0.3908,0.0191 1.23988,1.80459 1.84202,3.11347 -0.74675,-0.76893 -2.75993,-3.20279 -3.90766,-3.26146 -1.65849,-0.0848 0.59451,1.82692 1.68951,3.93547 -1.21685,-1.34433 -3.3035,-4.43041 -4.50025,-3.70959 -0.71711,0.43194 1.25854,1.24599 2.20135,3.96255 -1.80335,-2.96374 -3.83819,-4.62953 -4.75516,-3.80787 -0.49406,0.44268 1.17142,2.02412 2.15888,4.21305 -2.29286,-3.77558 -3.81584,-4.47629 -4.96011,-4.04975 -0.82395,0.30714 1.34801,1.95114 2.38784,4.1238 -1.99476,-2.44288 -3.60456,-4.05173 -4.62599,-3.71819 -0.89675,0.29283 0.79975,1.52369 2.08507,4.27647 -1.67612,-2.25864 -2.33369,-4.56538 -4.55238,-3.79962 -0.57629,0.19889 2.06985,2.81765 2.36896,4.25687 -1.03811,-1.3663 -2.20783,-4.09425 -4.06446,-3.4528 -0.44853,0.15497 0.36049,0.61983 1.75887,3.218 -1.11918,-1.37509 -2.79636,-3.02141 -4.07919,-2.11549 -1.14614,0.80937 1.5333,0.92312 2.2418,2.85178 -1.14241,-1.45605 -2.86729,-1.77718 -3.75285,-2.01789 -2.27787,-0.61919 -4.2915,4.57443 -3.64738,7.13269 l 0,0 z"
         style="fill:#000000;fill-opacity:1;fill-rule:evenodd;stroke:none;stroke-width:1px;marker:none;visibility:visible;display:inline;overflow:visible;enable-background:accumulate" />
      <path
         inkscape:export-ydpi="14.82"
         inkscape:export-xdpi="14.82"
         inkscape:export-filename="/home/eprabowo/Pictures/PUSPA.png"
         sodipodi:nodetypes="ccccc"
         id="path3783"
         d="m 539.10853,171.92094 c 6.05436,10.60555 5.49464,9.48826 8.05703,12.69971 -2.99917,2.73345 -2.47734,4.17982 -11.79347,8.47887 3.63144,-2.54513 7.92835,-4.14295 8.79283,-7.91212 0.0536,-5.07446 -4.49956,-9.00728 -5.05639,-13.26646 l 0,0 z"
         style="fill:#000000;fill-opacity:1;fill-rule:evenodd;stroke:none;stroke-width:1px;marker:none;visibility:visible;display:inline;overflow:visible;enable-background:accumulate" />
      <path
         inkscape:export-ydpi="14.82"
         inkscape:export-xdpi="14.82"
         inkscape:export-filename="/home/eprabowo/Pictures/PUSPA.png"
         style="fill:#6e633e;fill-opacity:1;fill-rule:evenodd;stroke:none;stroke-width:1px;marker:none;visibility:visible;display:inline;overflow:visible;enable-background:accumulate"
         d="m 506.14494,186.2162 c -0.47589,-10.07902 -6.908,-14.38667 20.54667,-16.29649 -25.62705,4.3467 -18.62459,8.10735 -20.54667,16.29649 z"
         id="path3735"
         sodipodi:nodetypes="ccc" />
      <path
         inkscape:export-ydpi="14.82"
         inkscape:export-xdpi="14.82"
         inkscape:export-filename="/home/eprabowo/Pictures/PUSPA.png"
         style="fill:#ffffff;fill-opacity:1;fill-rule:nonzero;stroke:none;stroke-width:1;marker:none;visibility:visible;display:inline;overflow:visible;enable-background:accumulate"
         d="m 522.47694,204.233 c 5.8967,1.7193 17.10866,1.20367 24.62099,-2.52651 -1.255,2.18602 -1.70211,2.1917 -2.63133,3.67334 -4.40418,5.21535 -18.75201,3.7904 -21.46571,-0.16115 -1.24382,-1.50424 -0.4144,-0.41004 -0.52395,-0.98568 z"
         id="path3739"
         sodipodi:nodetypes="ccccc" />
      <path
         inkscape:export-ydpi="14.82"
         inkscape:export-xdpi="14.82"
         inkscape:export-filename="/home/eprabowo/Pictures/PUSPA.png"
         sodipodi:nodetypes="ccccssc"
         id="path3656"
         d="m 522.282,204.45881 c 1.20171,1.46449 5.8957,2.81876 8.19677,3.53806 3.24075,0.40617 10.33856,-0.73944 11.95364,-1.67168 2.17399,-1.2727 3.12187,-2.21926 4.52069,-4.30039 -1.61342,3.56475 -2.93725,5.4551 -4.21229,6.3447 -3.0372,2.11909 -9.48901,3.15913 -12.63895,1.64447 -2.81348,-1.35285 -5.55533,-2.51879 -7.81986,-5.55516 z"
         style="fill:#e44955;fill-opacity:1;fill-rule:nonzero;stroke:none;stroke-width:1;marker:none;visibility:visible;display:inline;overflow:visible;enable-background:accumulate" />
      <path
         inkscape:export-ydpi="14.82"
         inkscape:export-xdpi="14.82"
         inkscape:export-filename="/home/eprabowo/Pictures/PUSPA.png"
         style="fill:#e44955;fill-opacity:1;fill-rule:nonzero;stroke:none;stroke-width:1;marker:none;visibility:visible;display:inline;overflow:visible;enable-background:accumulate"
         d="m 522.18783,204.29198 c 10.55464,1.85097 17.62329,0.76477 24.77198,-2.62933 -4.06515,0.19237 -5.50393,-0.11193 -10.80152,0.98471 -4.73375,0.10185 -8.55292,0.87522 -13.97046,1.64462 l 0,0 z"
         id="path3743"
         sodipodi:nodetypes="cccc" />
      <path
         inkscape:export-ydpi="14.82"
         inkscape:export-xdpi="14.82"
         inkscape:export-filename="/home/eprabowo/Pictures/PUSPA.png"
         sodipodi:nodetypes="ccccc"
         id="path3781"
         d="m 497.50793,160.58983 c 0.25718,0.23351 0.0496,-0.002 0.30258,0.0715 2.8223,-3.49807 25.67805,-8.07125 30.05544,-4.05842 0.23466,-0.57789 -0.41125,-1.7638 -1.33921,-1.95793 -4.66404,-2.08209 -27.76774,1.64573 -29.01881,5.94489 l 0,-2e-5 z"
         style="fill:#000000;fill-opacity:1;fill-rule:nonzero;stroke:none;stroke-width:2;marker:none;visibility:visible;display:inline;overflow:visible;enable-background:accumulate" />
      <path
         inkscape:export-ydpi="14.82"
         inkscape:export-xdpi="14.82"
         inkscape:export-filename="/home/eprabowo/Pictures/PUSPA.png"
         sodipodi:nodetypes="ccc"
         id="path3807"
         d="m 501.94383,88.53527 c -11.28837,2.54489 -22.01277,10.74665 -27.9265,21.41578 4.84697,-12.52852 15.4533,-20.42484 27.9265,-21.41578 z"
         style="fill:#1e1e1e;fill-opacity:1;fill-rule:evenodd;stroke:none;stroke-width:1px;marker:none;visibility:visible;display:inline;overflow:visible;enable-background:accumulate" />
    </g>
  </g>
  <g
     inkscape:groupmode="layer"
     id="layer4"
     inkscape:label="FG"
     style="display:inline"
     sodipodi:insensitive="true">
    <text
       xml:space="preserve"
       style="font-size:20px;font-style:normal;font-variant:normal;font-weight:normal;font-stretch:normal;fill:#000000;fill-opacity:1;stroke:none;font-family:Liberation Serif;-inkscape-font-specification:Liberation Serif"
       x="526.18109"
       y="324.13095"
       id="text3394"><tspan
         sodipodi:role="line"
         id="tspan3396"
         x="526.18109"
         y="324.13095"
         style="font-size:32px;text-align:center;text-anchor:middle">Oleh</tspan><tspan
         sodipodi:role="line"
         x="526.18109"
         y="364.13095"
         style="font-size:32px;text-align:center;text-anchor:middle"
         id="tspan3398">PUSPA Dev Team:</tspan><tspan
         sodipodi:role="line"
         x="526.18109"
         y="404.13095"
         style="font-size:32px;text-align:center;text-anchor:middle"
         id="tspan3400">Erik Prabowo             23208339</tspan><tspan
         sodipodi:role="line"
         x="526.18109"
         y="444.13095"
         style="font-size:32px;text-align:center;text-anchor:middle"
         id="tspan3402">Rio Andita Setiabakti 23208317</tspan></text>
    <text
       id="text3408"
       y="163.55392"
       x="524.66937"
       style="font-size:20px;font-style:normal;font-variant:normal;font-weight:normal;font-stretch:normal;fill:#000000;fill-opacity:1;stroke:none;font-family:Liberation Serif;-inkscape-font-specification:Liberation Serif"
       xml:space="preserve"><tspan
         id="tspan3416"
         style="font-size:144px;text-align:center;text-anchor:middle"
         y="163.55392"
         x="524.66937"
         sodipodi:role="line">PUSPA</tspan></text>
    <text
       id="text3450"
       y="601.25873"
       x="525.11761"
       style="font-size:20px;font-style:normal;font-variant:normal;font-weight:normal;font-stretch:normal;fill:#000000;fill-opacity:1;stroke:none;font-family:Liberation Serif;-inkscape-font-specification:Liberation Serif"
       xml:space="preserve"><tspan
         id="tspan3458"
         style="font-size:32px;text-align:center;text-anchor:middle"
         y="601.25873"
         x="525.11761"
         sodipodi:role="line">SEKOLAH TEKNIK ELEKTRO DAN INFORMATIKA</tspan><tspan
         style="font-size:32px;text-align:center;text-anchor:middle"
         y="641.25873"
         x="525.11761"
         sodipodi:role="line"
         id="tspan3469">INSTITUT TEKNOLOGI BANDUNG</tspan><tspan
         style="font-size:32px;text-align:center;text-anchor:middle"
         y="681.25873"
         x="525.11761"
         sodipodi:role="line"
         id="tspan3471">2010</tspan></text>
  </g>
</svg>
